<svg width="28" height="28" viewBox="0 0 28 28" fill="none" xmlns="http://www.w3.org/2000/svg">
<g clip-path="url(#clip0_349_307)">
<path d="M12.7904 14.1638L11.956 17.5448C12.9864 17.8038 16.1616 18.8342 16.632 16.9274C17.122 14.938 13.8194 14.4228 12.7904 14.1638ZM13.9286 9.548L13.1726 12.6154C14.0294 12.831 16.6726 13.713 17.101 11.9784C17.5462 10.1682 14.7854 9.765 13.9286 9.548ZM14 0C11.2311 0 8.52431 0.821086 6.22202 2.35942C3.91973 3.89776 2.12532 6.08426 1.06569 8.64243C0.00606598 11.2006 -0.271181 14.0155 0.269012 16.7313C0.809205 19.447 2.14258 21.9416 4.10051 23.8995C6.05845 25.8574 8.55301 27.1908 11.2687 27.731C13.9845 28.2712 16.7994 27.9939 19.3576 26.9343C21.9157 25.8747 24.1022 24.0803 25.6406 21.778C27.1789 19.4757 28 16.7689 28 14C28 12.1615 27.6379 10.341 26.9343 8.64243C26.2307 6.94387 25.1995 5.40052 23.8995 4.1005C22.5995 2.80048 21.0561 1.76925 19.3576 1.06569C17.659 0.362121 15.8385 0 14 0ZM20.1012 12.005C20.0718 12.5421 19.8657 13.0544 19.515 13.4623C19.1644 13.8701 18.6888 14.1507 18.1622 14.2604C18.5084 14.4013 18.8216 14.6124 19.0821 14.8804C19.3427 15.1484 19.5449 15.4674 19.676 15.8174C19.8072 16.1674 19.8644 16.5408 19.8441 16.914C19.8237 17.2872 19.7263 17.6521 19.558 17.9858C18.7376 20.3546 16.7902 20.5548 14.2002 20.0592L13.5716 22.6072L12.0526 22.2236L12.6728 19.7106C12.2683 19.6098 11.865 19.5038 11.4632 19.3928L10.8402 21.9184L9.32261 21.5362L9.9526 18.9826C9.597 18.8916 9.2372 18.7936 8.869 18.7012L6.8922 18.2028L7.6468 16.4444C7.6468 16.4444 8.7668 16.7454 8.75 16.723C8.81966 16.7455 8.89311 16.7539 8.96605 16.7478C9.03899 16.7416 9.10998 16.721 9.17487 16.6871C9.23977 16.6532 9.29727 16.6067 9.34402 16.5504C9.39078 16.4941 9.42585 16.429 9.4472 16.359L11.151 9.4444C11.1728 9.23273 11.1112 9.02091 10.9791 8.85406C10.847 8.68722 10.655 8.57854 10.444 8.5512C10.4664 8.5358 9.3394 8.274 9.3394 8.274L9.74541 6.6332L11.8384 7.1624L11.837 7.1708C12.152 7.2492 12.4768 7.3248 12.8072 7.4004L13.4288 4.8776L14.9478 5.2612L14.3374 7.7336C14.7448 7.8288 15.155 7.9226 15.5554 8.0234L16.1602 5.5664L17.6792 5.95L17.0562 8.4728C18.9742 9.1406 20.377 10.143 20.1012 12.005Z" fill="#EDA756"/>
</g>
<defs>
<clipPath id="clip0_349_307">
<rect width="28" height="28" fill="white"/>
</clipPath>
</defs>
</svg>
