<svg width="196" height="54" viewBox="0 0 196 54" fill="none" xmlns="http://www.w3.org/2000/svg">
<g clip-path="url(#clip0_348_285)">
<path d="M17.0829 23.5636L0 13.7455V21.5182V40.5205L6.38034 44.2023V44.1818L23.4632 54V45.2045V33.3614V27.225L17.0829 23.5636ZM17.0829 43.5682L6.38034 37.7591V24.2182L17.0829 30.0886V43.5682ZM46.9264 13.1523L40.8136 9.63409L23.7925 19.0841L21.6932 17.8364L38.529 8.30455L32.0664 4.60227L15.6215 14.2977L13.584 13.0909L30.1728 3.53864L23.9983 0L0.617453 12.9273L7.20361 16.8136L20.6641 24.4636L23.9777 26.4273L24.0189 26.4068L24.0601 26.4273L25.6449 25.4659L46.9264 13.1523ZM30.8726 23.5636L24.4923 27.225V33.3614V45.2045V54L41.5751 44.1818V44.2023L47.9555 40.5205V30.7023L41.5751 34.3841V37.7591L30.8726 43.5682V30.0886L41.5751 24.0136V28.4523L47.9555 24.7705V21.4977V13.725L30.8726 23.5636Z" fill="#6352CD"/>
<path d="M68.6607 15.6885C62.4656 15.6885 57.8965 19.9226 57.8965 25.7112C57.8965 31.4998 62.4656 35.7339 68.6607 35.7339C74.8559 35.7339 79.425 31.4998 79.425 25.7112C79.425 19.9226 74.8559 15.6885 68.6607 15.6885ZM68.6607 31.2135C65.7176 31.2135 63.433 29.0453 63.433 25.7112C63.433 22.3771 65.7381 20.2089 68.6607 20.2089C71.5834 20.2089 73.8885 22.3771 73.8885 25.7112C73.8885 29.0453 71.5834 31.2135 68.6607 31.2135ZM91.4859 20.168C89.5306 20.168 88.0488 20.7203 87.0608 21.9067V20.4135H82.0595V40.6839H87.3284V34.0158C88.3575 35.0589 89.757 35.5908 91.5065 35.5908C95.5817 35.5908 98.8748 32.6248 98.8748 27.8794C98.8748 23.1339 95.5611 20.168 91.4859 20.168ZM90.3951 31.4385C88.625 31.4385 87.2461 30.1498 87.2461 27.8794C87.2461 25.6294 88.625 24.3203 90.3951 24.3203C92.1651 24.3203 93.5441 25.6089 93.5441 27.8794C93.5441 30.1498 92.1651 31.4385 90.3951 31.4385ZM108.61 20.168C103.876 20.168 100.357 23.3589 100.357 27.8589C100.357 32.318 103.814 35.5908 109.166 35.5908C112.026 35.5908 114.126 34.7726 115.567 33.1771L112.788 30.3135C111.759 31.193 110.792 31.6021 109.33 31.6021C107.396 31.6021 106.099 30.7226 105.646 29.2089H116.554C116.575 28.7998 116.637 28.3089 116.637 27.9203C116.637 22.9908 113.035 20.168 108.61 20.168ZM105.564 26.4476C105.873 24.8726 107.005 23.8908 108.631 23.8908C110.256 23.8908 111.43 24.8726 111.697 26.4476H105.564ZM128.842 20.168C126.969 20.168 125.261 20.8021 124.087 22.0498V20.4339H119.086V35.3657H124.355V28.1453C124.355 25.6703 125.652 24.6271 127.339 24.6271C128.862 24.6271 129.809 25.5271 129.809 27.6748V35.3657H135.078V26.8362C135.037 22.193 132.361 20.168 128.842 20.168ZM148.518 20.2089C150.37 20.2089 151.873 21.0067 153.087 22.4589L156.565 19.3294C154.692 16.9976 151.811 15.6885 148.23 15.6885C142.076 15.6885 137.568 19.8407 137.568 25.7112C137.568 31.5817 142.076 35.7339 148.23 35.7339C151.811 35.7339 154.672 34.4453 156.565 32.093L153.087 28.9635C151.873 30.4158 150.37 31.2135 148.518 31.2135C145.328 31.2135 143.126 29.0044 143.126 25.7112C143.126 22.418 145.348 20.2089 148.518 20.2089ZM164.448 27.6135H173.051V23.5226H164.448V20.2907H174.225V16.0771H159.035V35.3453H174.595V31.1317H164.448V27.6135ZM188.817 25.3839L195.568 16.0771H189.64L185.812 21.6408L181.943 16.0771H175.768L182.519 25.6089L175.459 35.3453H181.716L185.668 29.3726L189.681 35.3453H196L188.817 25.3839Z" fill="white"/>
</g>
<defs>
<clipPath id="clip0_348_285">
<rect width="196" height="54" fill="white"/>
</clipPath>
</defs>
</svg>
