<svg width="100" height="24" viewBox="0 0 100 24" fill="none" xmlns="http://www.w3.org/2000/svg">
<path d="M13.5827 10.4727L6 6.10909V9.56364V18.0091L8.83209 19.6455V19.6364L16.4148 24V20.0909V14.8273V12.1L13.5827 10.4727ZM13.5827 19.3636L8.83209 16.7818V10.7636L13.5827 13.3727V19.3636ZM26.8296 5.84546L24.1162 4.28182L16.561 8.48182L15.6291 7.92727L23.1022 3.69091L20.2335 2.04545L12.9341 6.35455L12.0296 5.81818L19.393 1.57273L16.6523 0L6.27407 5.74545L9.19752 7.47273L15.1723 10.8727L16.6432 11.7455L16.6615 11.7364L16.6797 11.7455L17.3832 11.3182L26.8296 5.84546ZM19.7037 10.4727L16.8716 12.1V14.8273V20.0909V24L24.4543 19.6364V19.6455L27.2864 18.0091V13.6455L24.4543 15.2818V16.7818L19.7037 19.3636V13.3727L24.4543 10.6727V12.6455L27.2864 11.0091V9.55455V6.1L19.7037 10.4727Z" fill="#6352CD"/>
<path d="M36.477 6.97266C33.7271 6.97266 31.699 8.85447 31.699 11.4272C31.699 13.9999 33.7271 15.8817 36.477 15.8817C39.2269 15.8817 41.255 13.9999 41.255 11.4272C41.255 8.85447 39.2269 6.97266 36.477 6.97266ZM36.477 13.8727C35.1706 13.8727 34.1565 12.909 34.1565 11.4272C34.1565 9.94538 35.1797 8.98175 36.477 8.98175C37.7743 8.98175 38.7975 9.94538 38.7975 11.4272C38.7975 12.909 37.7743 13.8727 36.477 13.8727ZM46.6086 8.96357C45.7407 8.96357 45.0829 9.20902 44.6444 9.73629V9.07266H42.4244V18.0817H44.7631V15.1181C45.2199 15.5817 45.8412 15.8181 46.6177 15.8181C48.4266 15.8181 49.8883 14.4999 49.8883 12.3908C49.8883 10.2817 48.4174 8.96357 46.6086 8.96357ZM46.1244 13.9727C45.3387 13.9727 44.7266 13.3999 44.7266 12.3908C44.7266 11.3908 45.3387 10.809 46.1244 10.809C46.91 10.809 47.5221 11.3817 47.5221 12.3908C47.5221 13.3999 46.91 13.9727 46.1244 13.9727ZM54.2095 8.96357C52.1083 8.96357 50.5461 10.3817 50.5461 12.3817C50.5461 14.3636 52.0809 15.8181 54.4562 15.8181C55.7261 15.8181 56.6579 15.4545 57.2974 14.7454L56.0641 13.4727C55.6073 13.8636 55.1779 14.0454 54.5293 14.0454C53.6705 14.0454 53.095 13.6545 52.894 12.9817H57.7359C57.7451 12.7999 57.7725 12.5817 57.7725 12.409C57.7725 10.2181 56.1737 8.96357 54.2095 8.96357ZM52.8574 11.7545C52.9945 11.0545 53.4969 10.6181 54.2187 10.6181C54.9404 10.6181 55.4611 11.0545 55.5799 11.7545H52.8574ZM63.19 8.96357C62.3586 8.96357 61.6004 9.24538 61.0796 9.79993V9.08175H58.8596V15.7181H61.1984V12.509C61.1984 11.409 61.774 10.9454 62.5231 10.9454C63.1991 10.9454 63.6194 11.3454 63.6194 12.2999V15.7181H65.9581V11.9272C65.9399 9.86357 64.7522 8.96357 63.19 8.96357ZM71.9238 8.98175C72.746 8.98175 73.4129 9.33629 73.9519 9.98175L75.4959 8.59084C74.6645 7.55447 73.3855 6.97266 71.7959 6.97266C69.0643 6.97266 67.0636 8.81811 67.0636 11.4272C67.0636 14.0363 69.0643 15.8817 71.7959 15.8817C73.3855 15.8817 74.6554 15.309 75.4959 14.2636L73.9519 12.8727C73.4129 13.5181 72.746 13.8727 71.9238 13.8727C70.5078 13.8727 69.5302 12.8908 69.5302 11.4272C69.5302 9.96357 70.5169 8.98175 71.9238 8.98175ZM78.9949 12.2727H82.8136V10.4545H78.9949V9.01811H83.3344V7.14538H76.5922V15.709H83.4988V13.8363H78.9949V12.2727ZM89.8117 11.2817L92.8082 7.14538H90.1771L88.4778 9.61811L86.7603 7.14538H84.0196L87.0161 11.3817L83.8825 15.709H86.6598L88.4139 13.0545L90.1954 15.709H93L89.8117 11.2817Z" fill="#29292D"/>
</svg>
